<svg width="512" height="512" xmlns="http://www.w3.org/2000/svg">
 <g>
  <title>background</title>
  <rect x="-1" y="-1" width="514" height="514" id="canvas_background" fill="none"/>
 </g>

 <g>
  <title>Layer 1</title>
  <path d="m353.10156,485.51563l-353.10156,0l0,-485.51563l273.65625,0l79.44531,79.44922l0,406.06641zm0,0" fill="#e3e4d8" id="svg_1"/>
  <g fill="#cdc8bf" id="svg_2">
   <path d="m291.30859,167.72266l-97.10156,0c-4.87109,0 -8.82812,-3.95313 -8.82812,-8.82422c0,-4.875 3.95703,-8.82813 8.82812,-8.82813l97.10156,0c4.875,0 8.82813,3.95313 8.82813,8.82813c0,4.87109 -3.95313,8.82422 -8.82813,8.82422zm0,0" id="svg_3"/>
   <path d="m158.89844,167.72266l-97.10547,0c-4.87109,0 -8.82813,-3.95313 -8.82813,-8.82422c0,-4.875 3.95704,-8.82813 8.82813,-8.82813l97.10547,0c4.87109,0 8.82422,3.95313 8.82422,8.82813c0,4.87109 -3.95313,8.82422 -8.82422,8.82422zm0,0" id="svg_4"/>
   <path d="m273.65625,247.17188c-4.875,0 -8.82812,-3.95313 -8.82812,-8.82813c0,-38.9375 -31.6836,-70.62109 -70.6211,-70.62109c-4.87109,0 -8.82812,-3.95313 -8.82812,-8.82422c0,-4.875 3.95703,-8.82813 8.82812,-8.82813c48.67578,0 88.27735,39.59766 88.27735,88.27344c0,4.875 -3.95704,8.82813 -8.82813,8.82813zm0,0" id="svg_5"/>
   <path d="m79.44922,247.17188c-4.875,0 -8.82813,-3.95313 -8.82813,-8.82813c0,-48.67578 39.60157,-88.27344 88.27735,-88.27344c4.87109,0 8.82422,3.95313 8.82422,8.82813c0,4.87109 -3.95313,8.82422 -8.82422,8.82422c-38.94141,0 -70.6211,31.68359 -70.6211,70.62109c0,4.875 -3.95703,8.82813 -8.82812,8.82813zm0,0" id="svg_6"/>
  </g>
  <path d="m273.65625,0l0,79.44922l79.44531,0l-79.44531,-79.44922zm0,0" fill="#d0cebd" id="svg_7"/>
  <path d="m0,353.10156l353.10156,0l0,158.89844l-353.10156,0l0,-158.89844zm0,0" fill="#e48a00" id="svg_8"/>
  <path d="m158.89844,141.24219l35.30859,0l0,35.30859l-35.30859,0l0,-35.30859zm0,0" fill="#563c09" id="svg_9"/>
  <path d="m256,238.34375l35.30859,0l0,35.3125l-35.30859,0l0,-35.3125zm0,0" fill="#563c09" id="svg_10"/>
  <path d="m97.10156,273.65625l-35.30859,0l0,-35.3125l35.30859,0l0,35.3125zm0,0" fill="#563c09" id="svg_11"/>
  <path d="m18.96484,485.51563c-4.87109,0 -8.82812,-3.95313 -8.82812,-8.82422l0,-88.27735c0,-4.875 3.95703,-8.82812 8.82812,-8.82812c4.875,0 8.82813,3.95312 8.82813,8.82812l0,88.27735c0,4.87109 -3.95313,8.82422 -8.82813,8.82422zm0,0" fill="#fff" id="svg_12"/>
  <path d="m45.44922,450.20703l-26.48438,0c-4.87109,0 -8.82812,-3.95312 -8.82812,-8.82812l0,-52.96485c0,-4.875 3.95703,-8.82812 8.82812,-8.82812l26.48438,0c19.47266,0 35.30859,15.83593 35.30859,35.3125c0,19.47265 -15.83593,35.30859 -35.30859,35.30859zm-17.65625,-17.65625l17.65625,0c9.73437,0 17.65234,-7.91797 17.65234,-17.65234c0,-9.73828 -7.91797,-17.65625 -17.65234,-17.65625l-17.65625,0l0,35.30859zm0,0" fill="#fff" id="svg_13"/>
  <path d="m158.03516,485.51563c-3.04688,0 -5.94922,-1.57813 -7.56641,-4.28125l-36.57031,-60.95313l0,56.41016c0,4.87109 -3.95703,8.82422 -8.82813,8.82422c-4.875,0 -8.82812,-3.95313 -8.82812,-8.82422l0,-88.27735c0,-3.97265 2.64844,-7.44922 6.46875,-8.51172c3.83203,-1.04687 7.88281,0.56641 9.92187,3.96485l36.57422,60.95312l0,-56.40625c0,-4.875 3.95313,-8.82812 8.82813,-8.82812c4.87109,0 8.82812,3.95312 8.82812,8.82812l0,88.27735c0,3.96875 -2.64844,7.44922 -6.47265,8.50781c-0.78516,0.21094 -1.57032,0.31641 -2.35547,0.31641zm0,0" fill="#fff" id="svg_14"/>
  <path d="m227.44922,485.51563l-17.55078,0c-14.63672,0 -26.55469,-11.91407 -26.55469,-26.5625l0,-52.80469c0,-14.64453 11.91797,-26.5625 26.5625,-26.5625l35.23047,0c4.875,0 8.82812,3.95312 8.82812,8.82812c0,4.8711 -3.95312,8.82813 -8.82812,8.82813l-35.23047,0c-4.91797,0 -8.90625,4 -8.90625,8.90625l0,52.80469c0,4.91015 3.98828,8.91015 8.90625,8.91015l17.55078,0c4.88281,0 8.85156,-3.97265 8.85156,-8.85547l0,-26.45703c0,-4.87109 3.95704,-8.82812 8.82813,-8.82812c4.875,0 8.82812,3.95703 8.82812,8.82812l0,26.45703c0,14.61719 -11.89062,26.50782 -26.51562,26.50782zm0,0" fill="#fff" id="svg_15"/>
  <path d="m245.13672,441.37891l-17.65234,0c-4.875,0 -8.82813,-3.95313 -8.82813,-8.82813c0,-4.87109 3.95313,-8.82812 8.82813,-8.82812l17.65234,0c4.875,0 8.82812,3.95703 8.82812,8.82812c0,4.875 -3.95312,8.82813 -8.82812,8.82813zm0,0" fill="#fff" id="svg_16"/>
  <path id="svg_17" fill="#fff" d="m329.136719,485.515625l-35.230469,0c-14.644531,0 -26.5625,-11.914063 -26.5625,-26.5625l0,-52.804687c0,-14.644532 11.917969,-26.5625 26.5625,-26.5625l35.230469,0c4.875,0 8.828125,3.953124 8.828125,8.828124c0,4.871094 -3.953125,8.828126 -8.828125,8.828126l-35.230469,0c-4.917969,0 -8.90625,4 -8.90625,8.90625l0,52.804687c0,4.910156 3.988281,8.910156 8.90625,8.910156l35.230469,0c4.875,0 8.828125,3.953125 8.828125,8.828125c0,4.871094 -3.953125,8.824219 -8.828125,8.824219zm0,0"/>
 </g>
</svg>