<?xml version="1.0" encoding="iso-8859-1"?>
<!-- Generator: Adobe Illustrator 16.0.0, SVG Export Plug-In . SVG Version: 6.00 Build 0)  -->
<!DOCTYPE svg PUBLIC "-//W3C//DTD SVG 1.1//EN" "http://www.w3.org/Graphics/SVG/1.1/DTD/svg11.dtd">
<svg version="1.1" id="Capa_1" xmlns="http://www.w3.org/2000/svg" xmlns:xlink="http://www.w3.org/1999/xlink" x="0px" y="0px"
	 width="611.978px" height="611.977px" viewBox="0 0 611.978 611.977" style="enable-background:new 0 0 611.978 611.977;"
	 xml:space="preserve">
<g>
	<path d="M584.804,0.055h-114.47V57.29c0,15.031-12.166,27.174-27.175,27.174c-15.03,0-27.174-12.166-27.174-27.174V0.055H202.494
		V57.29c0,15.031-12.166,27.174-27.174,27.174c-15.008,0-27.196-12.166-27.196-27.174V0.055H27.174C12.166,0.055,0,12.221,0,27.229
		v557.52c0,15.098,12.166,27.174,27.174,27.174h557.63c15.03,0,27.174-12.1,27.174-27.174V27.229
		C612,12.221,599.834,0.055,584.804,0.055z M557.63,557.575H54.37V132.751h503.26V557.575z"/>
</g>
<g>
</g>
<g>
</g>
<g>
</g>
<g>
</g>
<g>
</g>
<g>
</g>
<g>
</g>
<g>
</g>
<g>
</g>
<g>
</g>
<g>
</g>
<g>
</g>
<g>
</g>
<g>
</g>
<g>
</g>
</svg>
